<?xml version="1.0" encoding="UTF-8"?>
<svg width="32px" height="32px" viewBox="0 0 32 32" version="1.1" xmlns="http://www.w3.org/2000/svg" xmlns:xlink="http://www.w3.org/1999/xlink">
<g stroke="none" stroke-width="1" fill="none" fill-rule="evenodd">
    <circle fill="#1E2024" cx="16" cy="16" r="16"></circle>
    <g id="Group-3" transform="translate(3.000000, 3.000000)" fill="#FFFFFF">
        <path d="M13.0067474,19.1418084 C13.1611184,19.1418084 13.3141648,19.1474837 13.4656872,19.1589487 L13.664,19.177 L13.6773213,19.1793404 L13.6918028,19.1805027 L13.8848214,19.2058187 C16.8685985,19.638141 19.1608313,22.2079796 19.1608313,25.3135609 C19.1608313,25.544949 19.1481064,25.773363 19.1221632,25.9990808 C16.5808353,24.7892702 14.4508132,22.8543976 12.999169,20.4617164 C11.5496612,22.8539307 9.41929551,24.7889921 6.87668923,25.9981406 C6.85190146,25.7733631 6.83917654,25.5449491 6.83917654,25.313561 C6.83917654,22.2079797 9.13140932,19.6381411 12.1151865,19.2058188 L12.3082051,19.1805026 L12.3212357,19.1780233 C12.5419595,19.1540891 12.7661768,19.1418083 12.9932605,19.1418083 L13.0067474,19.1418084 Z M10.7341772,15.2887681 C9.86331369,19.128437 6.8428432,22.1510332 3.00581876,23.0226 L3.04883854,22.8367851 C3.97356202,19.0855468 6.95805644,16.146 10.7341772,15.2887681 Z M15.2658299,15.2887682 L15.4515874,15.3321192 C19.2001836,16.2574448 22.1376817,19.2438276 22.9937888,23.0225093 C19.1569542,22.1508235 16.1366632,19.1283038 15.2658299,15.2887682 Z M25.3140021,6.83243292 C25.5453902,6.83243292 25.7738043,6.84515784 25.9985817,6.86994561 C24.7877602,9.4160701 22.8490154,11.5488123 20.4513899,13.0006162 C22.8489283,14.4510526 24.7878641,16.5836982 25.999522,19.1289065 C25.7738043,19.1548496 25.5453902,19.1675746 25.3140021,19.1675746 C21.9054373,19.1675746 19.1422496,16.4062591 19.1422496,13.0000037 C19.1422496,12.7729201 19.1545304,12.5487028 19.1784646,12.327979 L19.1809438,12.3149483 L19.2062599,12.1084429 C19.6385822,9.1246657 22.2084208,6.83243292 25.3140021,6.83243292 Z M0.68599787,6.83243292 C3.79157915,6.83243292 6.36141778,9.1246657 6.79374006,12.1084429 L6.81905615,12.3149483 L6.82153543,12.327979 C6.8454696,12.5487028 6.85775043,12.7729201 6.85775043,13.0000037 C6.85775043,16.4062591 4.09456269,19.1675746 0.68599787,19.1675746 C0.454609756,19.1675746 0.226195721,19.1548496 0.000477974437,19.1289065 C1.21213587,16.5836982 3.15107167,14.4510526 5.54880591,12.9992673 C3.15109176,11.5489302 1.2122733,9.41614046 0.00141827979,6.86994561 C0.226195721,6.84515784 0.454609756,6.83243292 0.68599787,6.83243292 Z M2.96855768,2.99070055 L3.15437259,3.03372034 C6.90561086,3.95844382 9.84515765,6.94293824 10.7023896,10.719059 C6.86272069,9.84819548 3.84012445,6.827725 2.96855768,2.99070055 Z M22.9937888,2.97749068 C22.1376817,6.75617238 19.2001836,9.74255516 15.4515874,10.6678808 L15.2658299,10.7112318 C16.1366632,6.8716962 19.1569542,3.84917652 22.9937888,2.97749068 Z M19.1221632,0.000919237097 C19.1481064,0.226636984 19.1608313,0.455051019 19.1608313,0.686439133 C19.1608313,3.85881451 16.7689366,6.47215417 13.6913545,6.81909389 C13.5520036,6.83561075 13.4107931,6.846642 13.2683329,6.8526838 C13.2021437,6.85507255 13.1354572,6.85694076 13.068514,6.85774172 L13.0374893,6.85809794 L12.9932605,6.8581917 C12.7661768,6.8581917 12.5419595,6.84591086 12.3212357,6.82197669 L12.3082051,6.81949741 C9.23107126,6.47215407 6.83917654,3.85881441 6.83917654,0.686439031 C6.83917654,0.455050917 6.85190146,0.226636882 6.87668923,0.00185944097 C9.41894369,1.21084059 11.5490716,3.14553379 13.000735,5.53812148 C14.4508132,3.14560242 16.5808353,1.21072983 19.1221632,0.000919237097 Z"></path>
    </g>
</g>
</svg>