<?xml version="1.0" encoding="UTF-8"?>
<svg width="14px" height="14px" viewBox="0 0 14 14" version="1.1" xmlns="http://www.w3.org/2000/svg" xmlns:xlink="http://www.w3.org/1999/xlink">
<g id="Page-1" stroke="none" stroke-width="1" fill="none" fill-rule="evenodd">
    <g id="close" fill="#121212" fill-rule="nonzero">
        <path d="M1.27298393,0.218423589 L6.997,5.942 L12.7218874,0.218423589 C13.0139301,-0.0677787463 13.4819872,-0.0653914415 13.7710953,0.223775028 C14.0602033,0.512941497 14.0624961,0.980999062 13.7762347,1.27298393 L8.051,6.997 L13.7762347,12.7218875 C13.9677659,12.9095883 14.0437511,13.1856823 13.9752333,13.4449526 C13.9067154,13.7042229 13.7042492,13.9067299 13.4449928,13.9753002 C13.1857363,14.0438705 12.909627,13.967941 12.7218874,13.7764478 L6.997,8.051 L1.27298393,13.7764478 C0.981686473,14.0674425 0.509721043,14.0674425 0.218423589,13.7764478 C-0.0725710889,13.4851504 -0.0725710889,13.0131849 0.218423589,12.7218875 L5.942,6.997 L0.218423589,1.27298393 C0.0300445239,1.08460487 -0.0435258775,0.810036402 0.0254256436,0.552705817 C0.0943771647,0.295375232 0.295375232,0.0943771647 0.552705817,0.0254256436 C0.810036402,-0.0435258775 1.08460487,0.0300445239 1.27298393,0.218423589 Z" id="Combined-Shape"></path>
    </g>
</g>
</svg>